<svg xmlns="http://www.w3.org/2000/svg" xmlns:xlink="http://www.w3.org/1999/xlink" width="144.125" height="78.03" viewBox="0 0 144.125 78.03">
  <defs>
    <style>
      .cls-1 {
        filter: url(#filter);
      }

      .cls-2 {
        fill: #333;
        fill-rule: evenodd;
      }
    </style>
    <filter id="filter" filterUnits="userSpaceOnUse">
      <feFlood result="flood" flood-color="#fff"/>
      <feComposite result="composite" operator="in" in2="SourceGraphic"/>
      <feBlend result="blend" in2="SourceGraphic"/>
    </filter>
  </defs>
  <g id="ロゴ" class="cls-1">
    <path id="Kirameki_Beauty_Labo" data-name="Kirameki Beauty Labo" class="cls-2" d="M660.062,5217.82l-5.186-6.43v1.02l5.025-5.85h-3.125l-4.461,5.39,4.606,5.87h3.141Zm-7.489,0v-11.26h-2.529v11.26h2.529Zm10.267,0v-7.88h-1.77v7.88h1.77Zm4.724-3.25a3.35,3.35,0,0,0,1.432-.29,2.219,2.219,0,0,0,.947-0.81,2.181,2.181,0,0,0,.338-1.21,2.2,2.2,0,0,0-.338-1.21,2.324,2.324,0,0,0-.936-0.82,3.188,3.188,0,0,0-1.387-.29h-1.894v1.36h1.691a1.089,1.089,0,0,1,.812.28,0.936,0.936,0,0,1,.282.7,0.948,0.948,0,0,1-.288.73,1.147,1.147,0,0,1-.817.27h-1.68v1.29h1.838Zm-1.421,3.25v-7.88h-1.77v7.88h1.77Zm4.657,0-2.954-3.83-1.624.44,2.48,3.39h2.1Zm1.758,0,2.424-6.54h-0.643l2.39,6.54H678.6l-3.123-7.88h-1.6l-3.157,7.88h1.838Zm4.3-1.43v-1.43h-4.341v1.43h4.341Zm4.351,1.43v-4.92l-0.3.07,2.029,3.15H684.1l2.041-3.15-0.316-.07v4.92h1.77v-7.88h-1.274l-3.122,4.83h0.642l-3.134-4.83h-1.263v7.88h1.759Zm9.684,0v-7.88h-1.77v7.88h1.77Zm3.946,0v-1.52h-4.363v1.52h4.363Zm-0.394-3.29v-1.47h-3.969v1.47h3.969Zm0.338-3.09v-1.5h-4.307v1.5h4.307Zm8.286,6.38-3.63-4.5v0.71l3.517-4.09h-2.187l-3.123,3.77,3.225,4.11h2.2Zm-5.242,0v-7.88h-1.77v7.88h1.77Zm7.745,0v-7.88H703.8v7.88h1.77Zm9.769,0a4.552,4.552,0,0,0,2.07-.43,3.226,3.226,0,0,0,1.32-1.17,3.12,3.12,0,0,0,.459-1.67,2.852,2.852,0,0,0-.781-2.04,3.966,3.966,0,0,0-2.214-1.1l-0.065.84a3.663,3.663,0,0,0,2-.99,2.44,2.44,0,0,0,.677-1.75,2.806,2.806,0,0,0-1.57-2.55,3.94,3.94,0,0,0-1.861-.4h-2.947v1.95h2.464a1.555,1.555,0,0,1,1.015.31,1.1,1.1,0,0,1,.386.93,1.157,1.157,0,0,1-.386.95,1.555,1.555,0,0,1-1.015.31h-2.464v1.9H715.1a1.7,1.7,0,0,1,.845.19,1.407,1.407,0,0,1,.54.52,1.539,1.539,0,0,1,.193.77,1.428,1.428,0,0,1-.419,1.05,1.531,1.531,0,0,1-1.159.43h-2.674v1.95h2.915Zm-2.351,0v-11.26h-2.5v11.26h2.5Zm9.268,0v-7.88h-1.77v7.88h1.77Zm3.946,0v-1.52h-4.363v1.52H726.2Zm-0.394-3.29v-1.47h-3.969v1.47h3.969Zm0.338-3.09v-1.5h-4.307v1.5h4.307Zm2.514,6.38,2.424-6.54h-0.643l2.39,6.54H734.7l-3.123-7.88h-1.6l-3.157,7.88h1.838Zm4.295-1.43v-1.43h-4.34v1.43h4.34Zm7.43,1.14a3.042,3.042,0,0,0,1.161-1.14,3.269,3.269,0,0,0,.417-1.66v-4.79H740.18v4.89a1.6,1.6,0,0,1-.2.81,1.378,1.378,0,0,1-.535.52,1.661,1.661,0,0,1-.789.19,1.716,1.716,0,0,1-.784-0.19,1.344,1.344,0,0,1-.558-0.53,1.571,1.571,0,0,1-.2-0.81v-4.88h-1.781v4.78a3.233,3.233,0,0,0,.423,1.66,3.027,3.027,0,0,0,1.172,1.15A3.846,3.846,0,0,0,740.383,5217.53Zm6.662,0.29v-7.77h-1.77v7.77h1.77Zm2.492-6.35v-1.53h-6.753v1.53h6.753Zm4.34,3.41,3.089-4.94H754.96l-2.357,3.99h1.319l-2.356-3.99h-2.052l3.067,4.94h1.3Zm0.26,2.94v-3.74h-1.77v3.74h1.77Zm9.66,0v-11.26h-2.529v11.26H763.8Zm5.04,0v-2.2h-5.62v2.2h5.62Zm2.378,0,2.423-6.54H773l2.39,6.54h1.871l-3.122-7.88h-1.6l-3.157,7.88h1.838Zm4.295-1.43v-1.43h-4.34v1.43h4.34Zm5.986,1.43a3.223,3.223,0,0,0,1.449-.3,2.258,2.258,0,0,0,.924-0.82,2.191,2.191,0,0,0,.322-1.17,2.02,2.02,0,0,0-.547-1.43,2.77,2.77,0,0,0-1.55-.77l-0.045.59a2.5,2.5,0,0,0,1.4-.69,1.712,1.712,0,0,0,.473-1.23,2,2,0,0,0-.282-1.04,1.969,1.969,0,0,0-.817-0.74,2.741,2.741,0,0,0-1.3-.28h-2.063v1.36h1.725a1.073,1.073,0,0,1,.71.22,0.927,0.927,0,0,1,0,1.31,1.073,1.073,0,0,1-.71.22h-1.725v1.33h1.871a1.324,1.324,0,0,1,.592.13,1.018,1.018,0,0,1,.378.37,1.082,1.082,0,0,1,.135.54,1.025,1.025,0,0,1-.293.74,1.084,1.084,0,0,1-.812.3h-1.871v1.36h2.04Zm-1.646,0v-7.88H778.1v7.88h1.747Zm10.919-.18a4.255,4.255,0,0,0,1.325-.86,3.973,3.973,0,0,0,.879-1.3,4.234,4.234,0,0,0,0-3.21,3.928,3.928,0,0,0-.885-1.3,4.15,4.15,0,0,0-1.33-.86,4.586,4.586,0,0,0-3.315,0,4.07,4.07,0,0,0-1.324.86,3.976,3.976,0,0,0-1.2,2.9,4.078,4.078,0,0,0,.315,1.6,3.972,3.972,0,0,0,.891,1.3,4.226,4.226,0,0,0,1.336.87,4.3,4.3,0,0,0,1.663.31A4.241,4.241,0,0,0,790.769,5217.64Zm-2.632-1.46a2.1,2.1,0,0,1-.75-0.51,2.247,2.247,0,0,1-.479-0.79,2.861,2.861,0,0,1-.169-1.01,2.729,2.729,0,0,1,.293-1.3,2.069,2.069,0,0,1,.828-0.86,2.411,2.411,0,0,1,1.246-.31,2.693,2.693,0,0,1,.964.17,2.2,2.2,0,0,1,1.235,1.29,2.884,2.884,0,0,1,.169,1.01,2.8,2.8,0,0,1-.293,1.3,2.1,2.1,0,0,1-.829.87,2.413,2.413,0,0,1-1.246.32A2.533,2.533,0,0,1,788.137,5216.18Z" transform="translate(-649.469 -5139.94)"/>
    <path id="KBL" class="cls-2" d="M692.663,5197.88l-38.349-31.12v1.81l37.484-28.64h-4.242l-36.271,27.78,37.05,30.17h4.328Zm-40.426,0v-57.95h-2.77v57.95h2.77Zm72.889,0a23.555,23.555,0,0,0,10.041-1.97,15.3,15.3,0,0,0,6.579-5.57,15.081,15.081,0,0,0,2.338-8.4,14.731,14.731,0,0,0-3.333-9.69,16.419,16.419,0,0,0-9.219-5.4l-0.433,1.03a13.761,13.761,0,0,0,7.531-5.02,14.349,14.349,0,0,0,2.6-8.7,13.861,13.861,0,0,0-2.034-7.63,13.258,13.258,0,0,0-5.714-4.88,20.326,20.326,0,0,0-8.7-1.72H705.215v2.49h19.564q6.232,0,9.955,3.17a10.884,10.884,0,0,1,3.723,8.74,11.636,11.636,0,0,1-3.29,8.71q-3.291,3.21-9,3.21H705.215v2.32H726.6a16.291,16.291,0,0,1,7.618,1.71,12.637,12.637,0,0,1,7.012,11.66,12.247,12.247,0,0,1-4.285,9.77q-4.285,3.69-11.384,3.69H705.215v2.48h19.911Zm-18.526,0v-57.95h-2.77v57.95h2.77Zm54.277,0v-57.95h-2.77v57.95h2.77Zm32.723,0v-2.48H759.666v2.48H793.6Z" transform="translate(-649.469 -5139.94)"/>
  </g>
</svg>
