<svg xmlns="http://www.w3.org/2000/svg" width="261.687" height="19.34" viewBox="0 0 261.687 19.34">
  <defs>
    <style>
      .cls-1 {
        fill: #4d2b1b;
        fill-rule: evenodd;
      }
    </style>
  </defs>
  <path id="Kirameki_Beauty_Labo" data-name="Kirameki Beauty Labo" class="cls-1" d="M550.92,1586.34l5.137-5.25c1.057-1.08,1.849-1.85,2.545-2.55h-4.537a11.848,11.848,0,0,1-1.873,2.33l-6.121,6.36v-5.59a17.2,17.2,0,0,1,.216-3.1h-3.553a19.832,19.832,0,0,1,.192,3.1v12.91a20.536,20.536,0,0,1-.192,3.09h3.553a16.254,16.254,0,0,1-.216-3.09v-3.53l2.616-2.62,4.778,6.72a22.369,22.369,0,0,1,1.512,2.52h4.442a31.945,31.945,0,0,1-2.4-3.05Zm10.992-2.16a12.554,12.554,0,0,1,.135,2.17v9.04a12.7,12.7,0,0,1-.135,2.17h2.555a12.822,12.822,0,0,1-.134-2.17v-9.04a12.672,12.672,0,0,1,.134-2.17h-2.555Zm16.91,13.38c-0.235-.46-0.656-1.37-0.79-1.67-1.664-3.93-1.983-4.4-3.042-4.74a3.2,3.2,0,0,0,2.723-3.47c0-2.22-1.463-3.5-4.018-3.5h-4.034c-0.924,0-1.445-.01-2.151-0.05a15.013,15.013,0,0,1,.134,2.19v9.05a13.2,13.2,0,0,1-.134,2.19h2.5a13.236,13.236,0,0,1-.134-2.21v-3.42h2.5c1.294,0,1.883.62,2.791,2.94a13.571,13.571,0,0,1,.874,2.69h2.773Zm-8.942-7.55v-3.91h3.446c1.378,0,2.067.62,2.067,1.83a2.006,2.006,0,0,1-.538,1.48,2.292,2.292,0,0,1-1.6.6H569.88Zm23.5,7.55a17.835,17.835,0,0,1-.857-1.99l-3.732-9.69a11.1,11.1,0,0,1-.571-1.7h-2.925a9.813,9.813,0,0,1-.538,1.7l-3.7,9.69a18.415,18.415,0,0,1-.891,1.99h2.757a8.41,8.41,0,0,1,.5-1.77l0.673-1.83h5.378l0.673,1.83a11.181,11.181,0,0,1,.47,1.77h2.757Zm-4.5-5.53h-4.168l1.748-4.98c0.05-.15.05-0.15,0.319-0.94,0.185,0.56.235,0.76,0.3,0.94Zm14.64,5.53a13.576,13.576,0,0,1,.74-2.24l2.521-5.91a20.576,20.576,0,0,0,.773-2.46c-0.016.26-.067,1.11-0.134,2.57v5.58a15.835,15.835,0,0,1-.134,2.46h2.353a14.663,14.663,0,0,1-.135-2.46v-8.43a17.406,17.406,0,0,1,.135-2.49h-3.093a9.26,9.26,0,0,1-.605,2l-3.395,8.33-3.413-8.33a11.521,11.521,0,0,1-.622-2h-3.076a16.706,16.706,0,0,1,.135,2.49v8.43a15.851,15.851,0,0,1-.135,2.46h2.354a15.445,15.445,0,0,1-.135-2.46v-5.51c0-.37-0.067-1.75-0.134-2.64a17.955,17.955,0,0,0,.857,2.57l2.42,5.77a11.354,11.354,0,0,1,.74,2.27h1.983Zm18.725-2.12a16.743,16.743,0,0,1-2.152.12h-5.042v-3.97h4.1a13.224,13.224,0,0,1,2.185.12v-2.2a18.268,18.268,0,0,1-2.185.12h-4.084v-3.47H619.9a15.613,15.613,0,0,1,2.168.12v-2.22a16.806,16.806,0,0,1-2.168.12h-5.077c-1.025,0-1.462-.01-2.134-0.05a15.053,15.053,0,0,1,.134,2.17v9.09a13.791,13.791,0,0,1-.134,2.22c0.672-.04,1.126-0.05,2.134-0.05h5.245a15.225,15.225,0,0,1,2.168.11v-2.23Zm8.371-5.8,3.6-3.68c0.739-.75,1.294-1.29,1.781-1.78H632.81a8.034,8.034,0,0,1-1.311,1.63l-4.286,4.45v-3.91a12.073,12.073,0,0,1,.151-2.17h-2.487a13.886,13.886,0,0,1,.134,2.17v9.04a14.473,14.473,0,0,1-.134,2.17h2.487a11.509,11.509,0,0,1-.151-2.17v-2.47l1.832-1.83,3.345,4.7a15.717,15.717,0,0,1,1.059,1.77h3.11a23.518,23.518,0,0,1-1.681-2.14Zm8.051-5.46a12.672,12.672,0,0,1,.134,2.17v9.04a12.822,12.822,0,0,1-.134,2.17h2.554a12.822,12.822,0,0,1-.134-2.17v-9.04a12.672,12.672,0,0,1,.134-2.17H638.66Zm24.043,13.46c3.985,0,6.218-1.89,6.218-5.25a4.731,4.731,0,0,0-1.489-3.67,4.44,4.44,0,0,0-2.425-1.11,4.026,4.026,0,0,0,1.9-1.01,4.289,4.289,0,0,0,1.344-3.38c0-3-2.088-4.68-5.809-4.68h-5.666c-1.632,0-2.016,0-3.025-.05a23.005,23.005,0,0,1,.192,2.96v13.02a17.05,17.05,0,0,1-.216,3.24c0.984-.04,1.681-0.07,3.073-0.07H662.7Zm-5.594-11.28v-5.13h4.97a3.4,3.4,0,0,1,2.3.74,2.451,2.451,0,0,1,.624,1.78c0,1.63-1.08,2.61-2.9,2.61h-4.994Zm0,2.67h5.114a3.963,3.963,0,0,1,2.616.81,2.6,2.6,0,0,1,.768,2.09c0,1.94-1.2,3-3.336,3h-5.162v-5.9Zm24.717,6.41a16.737,16.737,0,0,1-2.151.12h-5.043v-3.97h4.1a13.224,13.224,0,0,1,2.185.12v-2.2a18.268,18.268,0,0,1-2.185.12h-4.084v-3.47h4.841a15.613,15.613,0,0,1,2.168.12v-2.22a16.806,16.806,0,0,1-2.168.12h-5.077c-1.025,0-1.462-.01-2.134-0.05a15.053,15.053,0,0,1,.134,2.17v9.09a13.791,13.791,0,0,1-.134,2.22c0.672-.04,1.126-0.05,2.134-0.05h5.245a15.225,15.225,0,0,1,2.168.11v-2.23Zm14.842,2.12a17.835,17.835,0,0,1-.857-1.99l-3.732-9.69a11.1,11.1,0,0,1-.571-1.7h-2.925a9.9,9.9,0,0,1-.538,1.7l-3.7,9.69a18.415,18.415,0,0,1-.891,1.99h2.757a8.41,8.41,0,0,1,.5-1.77l0.672-1.83h5.379l0.673,1.83a11.4,11.4,0,0,1,.47,1.77h2.757Zm-4.5-5.53H688l1.748-4.98c0.05-.15.05-0.15,0.319-0.94,0.185,0.56.235,0.76,0.3,0.94Zm15.615-7.85a13.646,13.646,0,0,1,.135,2.3v5.92c0,2.28-1.16,3.48-3.413,3.48-2.269,0-3.445-1.2-3.445-3.47v-5.93a13.148,13.148,0,0,1,.134-2.3h-2.5a13.928,13.928,0,0,1,.134,2.3v5.93a5.432,5.432,0,0,0,1.261,3.87,5.784,5.784,0,0,0,4.336,1.58c3.665,0,5.732-1.95,5.732-5.43v-5.96a13.589,13.589,0,0,1,.135-2.29h-2.5Zm11.447,2.02h2.1a16.714,16.714,0,0,1,2.471.12v-2.26a16.862,16.862,0,0,1-2.471.12h-6.657a15.928,15.928,0,0,1-2.286-.12v2.26a15.755,15.755,0,0,1,2.3-.12h2.269v9.17a14.157,14.157,0,0,1-.134,2.19h2.538a13.993,13.993,0,0,1-.134-2.19v-9.17Zm13.144,11.36a13.876,13.876,0,0,1-.135-2.17v-3.31l3.883-6.17c0.286-.47.925-1.39,1.16-1.73h-2.925a7.473,7.473,0,0,1-.79,1.67l-2.471,4.11-2.437-4.13a6.733,6.733,0,0,1-.807-1.65h-2.941c0.537,0.77.924,1.33,1.176,1.73l3.883,6.15v3.33a16.217,16.217,0,0,1-.134,2.17h2.538Zm29.989-2.99a25.269,25.269,0,0,1-3.408.17h-6.722v-12.67a21.976,21.976,0,0,1,.192-3.53H748.8a23.405,23.405,0,0,1,.192,3.55v12.46a18.892,18.892,0,0,1-.192,3.16c0.864-.04,1.7-0.07,3.049-0.07h7.106a23.23,23.23,0,0,1,3.408.17v-3.24Zm14.529,2.99a17.835,17.835,0,0,1-.857-1.99l-3.732-9.69a11.1,11.1,0,0,1-.571-1.7H768.8a9.813,9.813,0,0,1-.538,1.7l-3.7,9.69a18.415,18.415,0,0,1-.891,1.99h2.757a8.41,8.41,0,0,1,.5-1.77l0.673-1.83h5.378l0.673,1.83a11.29,11.29,0,0,1,.47,1.77h2.757Zm-4.5-5.53h-4.168l1.748-4.98c0.05-.15.05-0.15,0.319-0.94,0.185,0.56.235,0.76,0.3,0.94Zm12.842,5.53c2.79,0,4.353-1.33,4.353-3.68a3.291,3.291,0,0,0-1.042-2.57,3.118,3.118,0,0,0-1.7-.78,2.847,2.847,0,0,0,1.327-.7,3.016,3.016,0,0,0,.942-2.37c0-2.1-1.463-3.28-4.068-3.28h-3.967c-1.143,0-1.412,0-2.118-.03a16,16,0,0,1,.135,2.07v9.12a12.032,12.032,0,0,1-.152,2.27c0.69-.04,1.177-0.05,2.152-0.05h4.135Zm-3.917-7.9v-3.6h3.48a2.413,2.413,0,0,1,1.613.52,1.737,1.737,0,0,1,.438,1.25,1.783,1.783,0,0,1-2.034,1.83h-3.5Zm0,1.86h3.581a2.8,2.8,0,0,1,1.832.57,1.833,1.833,0,0,1,.538,1.47c0,1.36-.841,2.1-2.337,2.1h-3.614v-4.14Zm16.792-7.61a5.837,5.837,0,0,0-4.337,1.68,7.206,7.206,0,0,0-1.916,5.25c0,4.26,2.454,7,6.27,7s6.286-2.75,6.286-7a7.26,7.26,0,0,0-1.882-5.25A5.9,5.9,0,0,0,798.1,1583.91Zm0.05,11.93a3.634,3.634,0,0,1-2.605-1.02,5.573,5.573,0,0,1-1.361-3.97c0-3.04,1.529-4.95,3.95-4.95a3.622,3.622,0,0,1,2.588,1.02,5.44,5.44,0,0,1,1.328,3.92C802.049,1593.93,800.553,1595.84,798.149,1595.84Z" transform="translate(-542.719 -1578.5)"/>
</svg>
