<svg xmlns="http://www.w3.org/2000/svg" xmlns:xlink="http://www.w3.org/1999/xlink" width="114.782" height="62.94" viewBox="0 0 114.782 62.94">
  <defs>
    <style>
      .cls-1 {
        filter: url(#filter);
      }

      .cls-2 {
        fill: #333;
        fill-rule: evenodd;
      }
    </style>
    <filter id="filter" filterUnits="userSpaceOnUse">
      <feFlood result="flood" flood-color="#fa7da3"/>
      <feComposite result="composite" operator="in" in2="SourceGraphic"/>
      <feBlend result="blend" in2="SourceGraphic"/>
    </filter>
  </defs>
  <g id="ロゴ" class="cls-1">
    <path id="Kirameki_Beauty_Labo" data-name="Kirameki Beauty Labo" class="cls-2" d="M538.239,1974.44l-4.131-5.18v0.82l4-4.72h-2.488l-3.554,4.35,3.669,4.73h2.5Zm-5.965,0v-9.08H530.26v9.08h2.014Zm8.177,0v-6.35h-1.409v6.35h1.409Zm3.763-2.62a2.543,2.543,0,0,0,1.14-.23,1.82,1.82,0,0,0,.754-0.65,1.78,1.78,0,0,0,.27-0.98,1.746,1.746,0,0,0-.27-0.97,1.854,1.854,0,0,0-.745-0.66,2.426,2.426,0,0,0-1.105-.24H542.75v1.1H544.1a0.87,0.87,0,0,1,.646.22,0.772,0.772,0,0,1,.225.57,0.756,0.756,0,0,1-.229.58,0.889,0.889,0,0,1-.651.22H542.75v1.04h1.464Zm-1.132,2.62v-6.35h-1.41v6.35h1.41Zm3.709,0-2.353-3.08-1.293.35,1.975,2.73h1.671Zm1.4,0,1.931-5.27H549.61l1.9,5.27H553l-2.487-6.35h-1.275l-2.514,6.35h1.463Zm3.422-1.15v-1.15h-3.458v1.15h3.458Zm3.466,1.15v-3.97l-0.243.07,1.616,2.54h0.934l1.625-2.54-0.251-.07v3.97h1.41v-6.35h-1.015l-2.487,3.9h0.512l-2.5-3.9h-1v6.35h1.4Zm7.713,0v-6.35h-1.41v6.35h1.41Zm3.142,0v-1.22h-3.475v1.22h3.475Zm-0.314-2.65v-1.18h-3.161v1.18h3.161Zm0.269-2.49v-1.21h-3.43v1.21h3.43Zm6.6,5.14-2.891-3.62v0.57l2.8-3.3h-1.742l-2.487,3.04,2.568,3.31h1.751Zm-4.175,0v-6.35H566.9v6.35h1.41Zm6.169,0v-6.35h-1.41v6.35h1.41Zm7.781,0a3.636,3.636,0,0,0,1.648-.34,2.54,2.54,0,0,0,1.052-.95,2.506,2.506,0,0,0,.366-1.34,2.345,2.345,0,0,0-.623-1.65,3.2,3.2,0,0,0-1.763-.89l-0.052.69a2.99,2.99,0,0,0,1.591-.8,2.016,2.016,0,0,0,.539-1.42,2.294,2.294,0,0,0-.321-1.19,2.268,2.268,0,0,0-.93-0.86,3.074,3.074,0,0,0-1.482-.33h-2.347v1.57h1.963a1.283,1.283,0,0,1,.808.25,1.094,1.094,0,0,1,0,1.52,1.226,1.226,0,0,1-.808.25h-1.963v1.53h2.129a1.292,1.292,0,0,1,.674.16,1.071,1.071,0,0,1,.429.42,1.235,1.235,0,0,1,.154.62,1.188,1.188,0,0,1-.333.85,1.23,1.23,0,0,1-.924.35h-2.129v1.56h2.322Zm-1.873,0v-9.08H578.4v9.08h1.988Zm7.382,0v-6.35h-1.41v6.35h1.41Zm3.143,0v-1.22h-3.475v1.22h3.475Zm-0.314-2.65v-1.18h-3.161v1.18H590.6Zm0.269-2.49v-1.21h-3.43v1.21h3.43Zm2,5.14,1.931-5.27h-0.512l1.9,5.27h1.49l-2.487-6.35h-1.275l-2.514,6.35h1.463Zm3.421-1.15v-1.15h-3.457v1.15h3.457Zm5.918,0.92a2.385,2.385,0,0,0,.925-0.92,2.679,2.679,0,0,0,.332-1.34v-3.86H602.05v3.94a1.277,1.277,0,0,1-.157.65,1.071,1.071,0,0,1-.427.43,1.268,1.268,0,0,1-.628.15,1.308,1.308,0,0,1-.624-0.15,1.077,1.077,0,0,1-.445-0.43,1.322,1.322,0,0,1-.161-0.66v-3.93h-1.419v3.85a2.679,2.679,0,0,0,.337,1.35,2.4,2.4,0,0,0,.934.92A3.034,3.034,0,0,0,602.212,1974.21Zm5.307,0.23v-6.26h-1.41v6.26h1.41Zm1.984-5.12v-1.23h-5.379v1.23H609.5Zm3.457,2.76,2.46-3.99h-1.6l-1.877,3.22H613l-1.877-3.22h-1.634l2.442,3.99h1.033Zm0.206,2.36v-3.01h-1.409v3.01h1.409Zm7.694,0v-9.08h-2.014v9.08h2.014Zm4.015,0v-1.77H620.4v1.77h4.477Zm1.894,0,1.93-5.27h-0.512l1.9,5.27h1.491l-2.488-6.35h-1.275l-2.514,6.35h1.464Zm3.421-1.15v-1.15h-3.457v1.15h3.457Zm4.768,1.15a2.56,2.56,0,0,0,1.154-.24,1.734,1.734,0,0,0,.992-1.6,1.61,1.61,0,0,0-.436-1.15,2.132,2.132,0,0,0-1.234-.62l-0.036.47a2.031,2.031,0,0,0,1.113-.56,1.4,1.4,0,0,0,.377-0.99,1.6,1.6,0,0,0-.224-0.83,1.575,1.575,0,0,0-.651-0.61,2.2,2.2,0,0,0-1.037-.22h-1.643v1.1h1.373a0.85,0.85,0,0,1,.566.17,0.641,0.641,0,0,1,.215.53,0.628,0.628,0,0,1-.215.53,0.854,0.854,0,0,1-.566.18h-1.373v1.07h1.49a0.97,0.97,0,0,1,.471.11,0.743,0.743,0,0,1,.3.3,0.837,0.837,0,0,1,.108.43,0.821,0.821,0,0,1-.233.59,0.832,0.832,0,0,1-.647.25h-1.49v1.09h1.625Zm-1.311,0v-6.35h-1.392v6.35h1.392Zm8.7-.14a3.243,3.243,0,0,0,1.055-.7,3.114,3.114,0,0,0,.7-1.04,3.466,3.466,0,0,0,0-2.59,3.224,3.224,0,0,0-.705-1.05,3.125,3.125,0,0,0-1.06-.69,3.61,3.61,0,0,0-2.64,0,3.075,3.075,0,0,0-1.055.69,3.2,3.2,0,0,0-.7,1.04,3.453,3.453,0,0,0,0,2.59,3.173,3.173,0,0,0,.709,1.05,3.347,3.347,0,0,0,1.064.7,3.381,3.381,0,0,0,1.325.25A3.329,3.329,0,0,0,642.343,1974.3Zm-2.1-1.18a1.569,1.569,0,0,1-.6-0.41,1.932,1.932,0,0,1-.381-0.63,2.391,2.391,0,0,1-.135-0.82,2.245,2.245,0,0,1,.234-1.05,1.629,1.629,0,0,1,.66-0.69,2.126,2.126,0,0,1,1.759-.11,1.718,1.718,0,0,1,.6.4,1.894,1.894,0,0,1,.386.63,2.415,2.415,0,0,1,.134.82,2.316,2.316,0,0,1-.233,1.05,1.666,1.666,0,0,1-.66.7,1.9,1.9,0,0,1-.992.26A1.936,1.936,0,0,1,640.247,1973.12Z" transform="translate(-529.812 -1911.62)"/>
    <path id="KBL" class="cls-2" d="M564.205,1958.37l-30.544-25.1v1.45l29.854-23.09h-3.378l-28.89,22.4,29.51,24.34h3.448Zm-32.2,0v-46.74H529.8v46.74h2.206Zm58.054,0a18.63,18.63,0,0,0,8-1.59,11.921,11.921,0,0,0,7.1-11.27,11.972,11.972,0,0,0-2.655-7.82,13.037,13.037,0,0,0-7.343-4.35l-0.345.83a10.944,10.944,0,0,0,6-4.05,11.663,11.663,0,0,0,2.068-7.01,11.3,11.3,0,0,0-1.62-6.16,10.617,10.617,0,0,0-4.551-3.94,16.129,16.129,0,0,0-6.929-1.38H574.2v2h15.582a11.746,11.746,0,0,1,7.929,2.56,8.835,8.835,0,0,1,2.965,7.05,9.437,9.437,0,0,1-2.62,7.02,9.743,9.743,0,0,1-7.171,2.59H574.2v1.87h17.03a12.831,12.831,0,0,1,6.067,1.38,10.24,10.24,0,0,1,5.585,9.41,9.932,9.932,0,0,1-3.413,7.88,13.321,13.321,0,0,1-9.066,2.97H574.2v2.01H590.06Zm-14.755,0v-46.74H573.1v46.74H575.3Zm43.23,0v-46.74h-2.206v46.74h2.206Zm26.063,0v-2.01H617.57v2.01H644.6Z" transform="translate(-529.812 -1911.62)"/>
  </g>
</svg>
