<svg xmlns="http://www.w3.org/2000/svg" xmlns:xlink="http://www.w3.org/1999/xlink" width="71.59" height="39.125" viewBox="0 0 71.59 39.125">
  <defs>
    <style>
      .cls-1 {
        filter: url(#filter);
      }

      .cls-2 {
        fill: #333;
        fill-rule: evenodd;
      }
    </style>
    <filter id="filter" filterUnits="userSpaceOnUse">
      <feFlood result="flood" flood-color="#fa7da3"/>
      <feComposite result="composite" operator="in" in2="SourceGraphic"/>
      <feBlend result="blend" in2="SourceGraphic"/>
    </filter>
  </defs>
  <g id="ロゴ" class="cls-1">
    <path id="Kirameki_Beauty_Labo" data-name="Kirameki Beauty Labo" class="cls-2" d="M2157.66,50.007l-2.58-3.224v0.512l2.5-2.936h-1.55l-2.22,2.7,2.29,2.944h1.56Zm-3.72,0V44.358h-1.26v5.648h1.26Zm5.1,0V46.053h-0.88v3.954h0.88Zm2.34-1.63a1.666,1.666,0,0,0,.72-0.146,1.187,1.187,0,0,0,.47-0.406,1.229,1.229,0,0,0,0-1.212,1.2,1.2,0,0,0-.47-0.412,1.54,1.54,0,0,0-.69-0.148h-0.94v0.683h0.84a0.566,0.566,0,0,1,.41.14,0.491,0.491,0,0,1,.14.353,0.464,0.464,0,0,1-.15.364,0.555,0.555,0,0,1-.4.134h-0.84v0.65h0.91Zm-0.7,1.63V46.053h-0.88v3.954h0.88Zm2.31,0-1.46-1.921-0.81.218,1.23,1.7h1.04Zm0.88,0,1.2-3.282h-0.32l1.19,3.282h0.93l-1.55-3.954h-0.8l-1.57,3.954h0.92Zm2.13-.717V48.573h-2.16V49.29H2166Zm2.16,0.717v-2.47l-0.15.039,1.01,1.579h0.58l1.01-1.579-0.15-.039v2.47h0.88V46.053h-0.64l-1.55,2.425h0.32l-1.56-2.425h-0.62v3.954h0.87Zm4.81,0V46.053h-0.88v3.954h0.88Zm1.96,0V49.245h-2.17v0.762h2.17Zm-0.19-1.652V47.621h-1.98v0.734h1.98Zm0.16-1.545V46.053h-2.14v0.756h2.14Zm4.12,3.2-1.8-2.257v0.358l1.74-2.055h-1.08l-1.55,1.893,1.6,2.061h1.09Zm-2.6,0V46.053h-0.88v3.954h0.88Zm3.84,0V46.053h-0.88v3.954h0.88Zm4.86,0a2.209,2.209,0,0,0,1.02-.216,1.555,1.555,0,0,0,.66-0.588,1.587,1.587,0,0,0,.23-0.836,1.441,1.441,0,0,0-.39-1.024,1.976,1.976,0,0,0-1.1-.552l-0.03.424a1.825,1.825,0,0,0,.99-0.5,1.262,1.262,0,0,0,.34-0.88,1.459,1.459,0,0,0-.2-0.744,1.5,1.5,0,0,0-.58-0.536,2.019,2.019,0,0,0-.93-0.2h-1.46v0.976h1.22a0.792,0.792,0,0,1,.51.156,0.591,0.591,0,0,1,.19.468,0.6,0.6,0,0,1-.19.476,0.792,0.792,0,0,1-.51.156h-1.22v0.952H2185a0.88,0.88,0,0,1,.42.1,0.672,0.672,0,0,1,.26.264,0.706,0.706,0,0,1,.1.384,0.729,0.729,0,0,1-.21.528,0.758,0.758,0,0,1-.57.216h-1.33v0.976h1.45Zm-1.17,0V44.358h-1.24v5.648h1.24Zm4.6,0V46.053h-0.88v3.954h0.88Zm1.96,0V49.245h-2.17v0.762h2.17Zm-0.19-1.652V47.621h-1.98v0.734h1.98Zm0.16-1.545V46.053h-2.14v0.756h2.14Zm1.25,3.2,1.21-3.282h-0.32l1.18,3.282h0.93l-1.55-3.954h-0.79l-1.57,3.954h0.91Zm2.14-.717V48.573h-2.16V49.29h2.16Zm3.69,0.571a1.526,1.526,0,0,0,.57-0.571,1.64,1.64,0,0,0,.21-0.835v-2.4h-0.88v2.453a0.861,0.861,0,0,1-.1.406,0.735,0.735,0,0,1-.27.263,0.786,0.786,0,0,1-.39.093,0.842,0.842,0,0,1-.39-0.093,0.687,0.687,0,0,1-.28-0.266,0.878,0.878,0,0,1-.1-0.409V46.053h-0.88v2.4a1.656,1.656,0,0,0,.21.837,1.478,1.478,0,0,0,.58.574,1.728,1.728,0,0,0,.86.207A1.755,1.755,0,0,0,2197.56,49.861Zm3.31,0.146v-3.9h-0.88v3.9h0.88Zm1.23-3.187V46.053h-3.35V46.82h3.35Zm2.16,1.714,1.53-2.481h-0.99l-1.17,2h0.65l-1.17-2h-1.02l1.53,2.481h0.64Zm0.13,1.473V48.13h-0.88v1.876h0.88Zm4.8,0V44.358h-1.26v5.648h1.26Zm2.5,0V48.9h-2.79v1.1h2.79Zm1.18,0,1.21-3.282h-0.32l1.18,3.282h0.93l-1.55-3.954h-0.79l-1.57,3.954h0.91Zm2.13-.717V48.573h-2.15V49.29H2215Zm2.98,0.717a1.583,1.583,0,0,0,.72-0.151,1.132,1.132,0,0,0,.46-0.411,1.159,1.159,0,0,0,.16-0.585,1.015,1.015,0,0,0-.27-0.717,1.407,1.407,0,0,0-.77-0.386l-0.03.3a1.29,1.29,0,0,0,.7-0.347,0.9,0.9,0,0,0,.23-0.616,0.939,0.939,0,0,0-.14-0.521,1.012,1.012,0,0,0-.4-0.375,1.411,1.411,0,0,0-.65-0.14h-1.02v0.683h0.85a0.509,0.509,0,0,1,.35.109,0.4,0.4,0,0,1,.14.328,0.406,0.406,0,0,1-.14.333,0.509,0.509,0,0,1-.35.109h-0.85v0.666h0.92a0.61,0.61,0,0,1,.3.067,0.531,0.531,0,0,1,.19.185,0.584,0.584,0,0,1,.06.269,0.5,0.5,0,0,1-.55.521h-0.92v0.683h1.01Zm-0.82,0V46.053h-0.87v3.954h0.87Zm5.42-.09a1.893,1.893,0,0,0,.66-0.434,2.035,2.035,0,0,0,.44-0.65,2.112,2.112,0,0,0,0-1.613,2.034,2.034,0,0,0-.44-0.649,2.06,2.06,0,0,0-.66-0.431,2.288,2.288,0,0,0-1.65,0,2.06,2.06,0,0,0-.66.431,2.015,2.015,0,0,0-.43.647,2.105,2.105,0,0,0,0,1.61,1.912,1.912,0,0,0,.44.652,2.073,2.073,0,0,0,.66.437,2.182,2.182,0,0,0,.83.157A2.081,2.081,0,0,0,2222.58,49.917Zm-1.3-.734a1.1,1.1,0,0,1-.38-0.255,1.083,1.083,0,0,1-.23-0.395,1.385,1.385,0,0,1-.09-0.51,1.35,1.35,0,0,1,.15-0.652,1.051,1.051,0,0,1,.41-0.431,1.211,1.211,0,0,1,.62-0.154,1.323,1.323,0,0,1,.48.087,1.027,1.027,0,0,1,.37.252,1.277,1.277,0,0,1,.24.392,1.613,1.613,0,0,1-.06,1.159,1.131,1.131,0,0,1-.41.44A1.315,1.315,0,0,1,2221.28,49.183Z" transform="translate(-2152.41 -10.938)"/>
    <path id="KBL" class="cls-2" d="M2173.85,40.006L2154.8,24.4v0.9l18.62-14.362h-2.1L2153.3,24.87l18.4,15.136h2.15Zm-20.08,0V10.938h-1.37V40.006h1.37Zm36.21,0a11.661,11.661,0,0,0,4.99-.989,7.408,7.408,0,0,0,4.42-7.009,7.439,7.439,0,0,0-1.65-4.859,8.1,8.1,0,0,0-4.58-2.709l-0.22.516a6.853,6.853,0,0,0,3.75-2.515,7.25,7.25,0,0,0,1.29-4.364,7.023,7.023,0,0,0-1.01-3.827,6.639,6.639,0,0,0-2.84-2.451,10.073,10.073,0,0,0-4.32-.86h-9.72v1.247h9.72a7.311,7.311,0,0,1,4.94,1.591,5.49,5.49,0,0,1,1.85,4.386,5.888,5.888,0,0,1-1.63,4.365,6.1,6.1,0,0,1-4.48,1.613h-10.4V25.3h10.62a8,8,0,0,1,3.78.86,6.37,6.37,0,0,1,3.49,5.848,6.169,6.169,0,0,1-2.13,4.9,8.333,8.333,0,0,1-5.66,1.849h-10.1v1.247h9.89Zm-9.2,0V10.938h-1.38V40.006h1.38Zm26.96,0V10.938h-1.38V40.006h1.38Zm16.25,0V38.759h-16.86v1.247h16.86Z" transform="translate(-2152.41 -10.938)"/>
  </g>
</svg>
