<svg xmlns="http://www.w3.org/2000/svg" width="196.15" height="14.531" viewBox="0 0 196.15 14.531">
  <defs>
    <style>
      .cls-1 {
        fill: #4d2b1b;
        fill-rule: evenodd;
      }
    </style>
  </defs>
  <path id="Kirameki_Beauty_Labo" data-name="Kirameki Beauty Labo" class="cls-1" d="M2196.59,908.859l3.85-3.943c0.79-.81,1.39-1.387,1.91-1.909h-3.4a9,9,0,0,1-1.41,1.747l-4.59,4.771V905.33a13.726,13.726,0,0,1,.16-2.323h-2.66a14.666,14.666,0,0,1,.14,2.323v9.687a15.24,15.24,0,0,1-.14,2.323h2.66a12.758,12.758,0,0,1-.16-2.323V912.37l1.96-1.963,3.59,5.042a17.481,17.481,0,0,1,1.13,1.891h3.33a25.028,25.028,0,0,1-1.8-2.287Zm8.24-1.617a10.04,10.04,0,0,1,.1,1.626v6.781a10.139,10.139,0,0,1-.1,1.626h1.91a10.139,10.139,0,0,1-.1-1.626v-6.781a10.04,10.04,0,0,1,.1-1.626h-1.91Zm12.67,10.033c-0.17-.341-0.49-1.021-0.59-1.248-1.25-2.949-1.49-3.3-2.28-3.554a2.656,2.656,0,0,0,1.4-.731,2.585,2.585,0,0,0,.64-1.878c0-1.664-1.1-2.622-3.01-2.622h-3.03c-0.69,0-1.08-.013-1.61-0.037a10.63,10.63,0,0,1,.1,1.638v6.793a9.423,9.423,0,0,1-.1,1.639h1.88a9.4,9.4,0,0,1-.1-1.651v-2.571h1.88c0.97,0,1.41.466,2.09,2.205a10.067,10.067,0,0,1,.65,2.017h2.08Zm-6.7-5.659v-2.937h2.58a1.3,1.3,0,0,1,1.55,1.374,1.513,1.513,0,0,1-.4,1.109,1.7,1.7,0,0,1-1.2.454h-2.53Zm17.61,5.659a16.167,16.167,0,0,1-.64-1.487l-2.8-7.273a7.6,7.6,0,0,1-.42-1.273h-2.2a7.056,7.056,0,0,1-.4,1.273l-2.77,7.273a14.31,14.31,0,0,1-.67,1.487h2.07a6.619,6.619,0,0,1,.37-1.324l0.51-1.373h4.03l0.51,1.373a10.236,10.236,0,0,1,.35,1.324h2.06Zm-3.37-4.147h-3.13l1.31-3.731c0.04-.113.04-0.113,0.24-0.705,0.14,0.416.18,0.567,0.23,0.705Zm10.97,4.147a10.048,10.048,0,0,1,.56-1.677l1.89-4.436a18.145,18.145,0,0,0,.58-1.84c-0.02.189-.05,0.832-0.1,1.928v4.185a12.48,12.48,0,0,1-.1,1.84h1.76a10.5,10.5,0,0,1-.1-1.84v-6.327a12.458,12.458,0,0,1,.1-1.866h-2.32a7.183,7.183,0,0,1-.45,1.5l-2.55,6.251-2.56-6.251a8.322,8.322,0,0,1-.46-1.5h-2.31a11.957,11.957,0,0,1,.1,1.866v6.327a11.315,11.315,0,0,1-.1,1.84h1.76a12.256,12.256,0,0,1-.1-1.84V911.3c0-.278-0.05-1.311-0.1-1.979a13.767,13.767,0,0,0,.65,1.928l1.81,4.323a8.3,8.3,0,0,1,.55,1.7h1.49Zm14.04-1.588a12.047,12.047,0,0,1-1.61.088h-3.79V912.8h3.08a9.875,9.875,0,0,1,1.64.089v-1.651a13.267,13.267,0,0,1-1.64.088h-3.06v-2.6h3.63a11.226,11.226,0,0,1,1.62.089v-1.664a13.377,13.377,0,0,1-1.62.088h-3.81c-0.77,0-1.1-.013-1.6-0.037a10.562,10.562,0,0,1,.1,1.625v6.819a9.743,9.743,0,0,1-.1,1.664c0.5-.026.84-0.038,1.6-0.038h3.93a10.95,10.95,0,0,1,1.63.088v-1.676Zm6.27-4.349,2.7-2.76c0.55-.567.97-0.97,1.34-1.336h-2.39a6.148,6.148,0,0,1-.98,1.223l-3.21,3.34v-2.937a8.691,8.691,0,0,1,.11-1.626h-1.87a9.809,9.809,0,0,1,.11,1.626v6.781a10.216,10.216,0,0,1-.11,1.626h1.87a8.43,8.43,0,0,1-.11-1.626V913.8l1.37-1.374,2.51,3.529a11.925,11.925,0,0,1,.79,1.324h2.33a19.093,19.093,0,0,1-1.26-1.6Zm6.04-4.1a10.04,10.04,0,0,1,.1,1.626v6.781a10.139,10.139,0,0,1-.1,1.626h1.91a10.139,10.139,0,0,1-.1-1.626v-6.781a10.04,10.04,0,0,1,.1-1.626h-1.91Zm18.02,10.1c2.99,0,4.67-1.423,4.67-3.944a3.549,3.549,0,0,0-1.12-2.754,3.311,3.311,0,0,0-1.82-.829,3.018,3.018,0,0,0,1.42-.756,3.2,3.2,0,0,0,1.01-2.539c0-2.25-1.56-3.511-4.35-3.511h-4.25c-1.23,0-1.52,0-2.27-.036a17.209,17.209,0,0,1,.14,2.215v9.777a12.561,12.561,0,0,1-.16,2.431c0.74-.036,1.26-0.054,2.3-0.054h4.43Zm-4.19-8.463v-3.853h3.73a2.52,2.52,0,0,1,1.72.558,1.825,1.825,0,0,1,.47,1.332,1.91,1.91,0,0,1-2.18,1.963h-3.74Zm0,2h3.83a2.96,2.96,0,0,1,1.97.612,1.968,1.968,0,0,1,.57,1.566c0,1.459-.9,2.251-2.5,2.251h-3.87v-4.429Zm18.53,4.811a12.106,12.106,0,0,1-1.62.088h-3.78V912.8h3.08a9.875,9.875,0,0,1,1.64.089v-1.651a13.267,13.267,0,0,1-1.64.088h-3.06v-2.6h3.63a11.226,11.226,0,0,1,1.62.089v-1.664a13.377,13.377,0,0,1-1.62.088h-3.81c-0.77,0-1.1-.013-1.6-0.037a11.987,11.987,0,0,1,.1,1.625v6.819a10.894,10.894,0,0,1-.1,1.664c0.5-.026.84-0.038,1.6-0.038h3.93a10.95,10.95,0,0,1,1.63.088v-1.676Zm11.12,1.588a16.167,16.167,0,0,1-.64-1.487l-2.8-7.273a9.333,9.333,0,0,1-.43-1.273h-2.19a7.056,7.056,0,0,1-.4,1.273l-2.77,7.273a14.31,14.31,0,0,1-.67,1.487H2298a7.454,7.454,0,0,1,.38-1.324l0.51-1.373h4.03l0.5,1.373a8.847,8.847,0,0,1,.36,1.324h2.06Zm-3.37-4.147h-3.13l1.31-3.731c0.04-.113.04-0.113,0.24-0.705,0.14,0.416.18,0.567,0.23,0.705Zm11.7-5.886a9.831,9.831,0,0,1,.1,1.727v4.436a2.57,2.57,0,1,1-5.14.013v-4.449a10.509,10.509,0,0,1,.1-1.727h-1.88a9.915,9.915,0,0,1,.1,1.727v4.449a4.073,4.073,0,0,0,.95,2.9,4.332,4.332,0,0,0,3.25,1.185c2.75,0,4.3-1.462,4.3-4.071v-4.475a9.757,9.757,0,0,1,.1-1.714h-1.88Zm8.58,1.513h1.58a13.324,13.324,0,0,1,1.85.088v-1.689a13.419,13.419,0,0,1-1.85.088h-4.99a12.828,12.828,0,0,1-1.72-.088v1.689a12.506,12.506,0,0,1,1.73-.088h1.7v6.881a11.322,11.322,0,0,1-.1,1.639h1.9a11.21,11.21,0,0,1-.1-1.639v-6.881Zm9.85,8.52a11.143,11.143,0,0,1-.1-1.626v-2.483l2.92-4.626c0.21-.353.69-1.046,0.87-1.3h-2.2a5.79,5.79,0,0,1-.59,1.248l-1.85,3.088-1.83-3.1a5.552,5.552,0,0,1-.61-1.235h-2.2c0.4,0.58.69,1,.88,1.3l2.91,4.613v2.5a12.59,12.59,0,0,1-.1,1.626h1.9Zm22.49-2.24a19.043,19.043,0,0,1-2.56.126h-5.04v-9.507a16.055,16.055,0,0,1,.15-2.647h-2.72a17.4,17.4,0,0,1,.14,2.665v9.345a14.151,14.151,0,0,1-.14,2.377c0.65-.036,1.28-0.054,2.28-0.054h5.33a17.394,17.394,0,0,1,2.56.126v-2.431Zm10.89,2.24a11.925,11.925,0,0,1-.64-1.487l-2.8-7.273a8.042,8.042,0,0,1-.43-1.273h-2.19a8.313,8.313,0,0,1-.41,1.273l-2.77,7.273a14.31,14.31,0,0,1-.67,1.487h2.07a6.08,6.08,0,0,1,.38-1.324l0.5-1.373h4.03l0.51,1.373a7.783,7.783,0,0,1,.35,1.324h2.07Zm-3.38-4.147h-3.13l1.32-3.731c0.03-.113.03-0.113,0.23-0.705,0.14,0.416.18,0.567,0.23,0.705Zm9.63,4.147c2.09,0,3.26-1,3.26-2.76a2.476,2.476,0,0,0-.78-1.929,2.3,2.3,0,0,0-1.27-.579,2.136,2.136,0,0,0,.99-0.53,2.253,2.253,0,0,0,.71-1.777c0-1.576-1.1-2.458-3.05-2.458h-2.98c-0.85,0-1.06,0-1.58-.025a12.58,12.58,0,0,1,.1,1.55v6.844a8.778,8.778,0,0,1-.12,1.7c0.52-.026.88-0.038,1.62-0.038h3.1Zm-2.94-5.924v-2.7h2.61a1.8,1.8,0,0,1,1.21.39,1.294,1.294,0,0,1,.33.933,1.34,1.34,0,0,1-1.53,1.374h-2.62Zm0,1.4h2.68a2.087,2.087,0,0,1,1.38.428,1.358,1.358,0,0,1,.4,1.1,1.507,1.507,0,0,1-1.75,1.576h-2.71v-3.1Zm12.59-5.709a4.359,4.359,0,0,0-3.25,1.26,5.366,5.366,0,0,0-1.44,3.932c0,3.2,1.84,5.256,4.7,5.256s4.71-2.067,4.71-5.256a5.435,5.435,0,0,0-1.41-3.932A4.4,4.4,0,0,0,2381.88,907.041Zm0.04,8.948a2.737,2.737,0,0,1-1.96-.769,4.186,4.186,0,0,1-1.02-2.974c0-2.281,1.15-3.718,2.96-3.718a2.693,2.693,0,0,1,1.94.768,4.043,4.043,0,0,1,1,2.937C2384.84,914.552,2383.72,915.989,2381.92,915.989Z" transform="translate(-2190.44 -902.969)"/>
</svg>
