<svg xmlns="http://www.w3.org/2000/svg" xmlns:xlink="http://www.w3.org/1999/xlink" width="71" height="39" viewBox="0 0 71 39">
  <defs>
    <style>
      .cls-1 {
        filter: url(#filter);
      }

      .cls-2 {
        fill: #333;
        fill-rule: evenodd;
      }
    </style>
    <filter id="filter" filterUnits="userSpaceOnUse">
      <feFlood result="flood" flood-color="#fa7da3"/>
      <feComposite result="composite" operator="in" in2="SourceGraphic"/>
      <feBlend result="blend" in2="SourceGraphic"/>
    </filter>
  </defs>
  <g id="ロゴ" class="cls-1">
    <path id="Kirameki_Beauty_Labo" data-name="Kirameki Beauty Labo" class="cls-2" d="M2224.23,1173.94l-2.56-3.22v0.51l2.48-2.92h-1.54l-2.2,2.69,2.27,2.94h1.55Zm-3.69,0v-5.63h-1.25v5.63h1.25Zm5.05,0V1170h-0.87v3.94h0.87Zm2.33-1.63a1.728,1.728,0,0,0,.71-0.14,1.109,1.109,0,0,0,.63-1.01,1.109,1.109,0,0,0-.63-1.02,1.618,1.618,0,0,0-.68-0.14h-0.93v0.68h0.83a0.516,0.516,0,0,1,.4.14,0.483,0.483,0,0,1,.14.35,0.49,0.49,0,0,1-.14.36,0.581,0.581,0,0,1-.41.14h-0.82v0.64h0.9Zm-0.7,1.63V1170h-0.87v3.94h0.87Zm2.29,0-1.45-1.92-0.8.22,1.22,1.7h1.03Zm0.87,0,1.19-3.27h-0.31l1.17,3.27h0.93l-1.54-3.94h-0.79l-1.56,3.94h0.91Zm2.12-.72v-0.71h-2.14v0.71h2.14Zm2.14,0.72v-2.46l-0.15.03,1,1.58h0.58l1-1.58-0.15-.03v2.46h0.87V1170h-0.63l-1.54,2.41h0.32l-1.55-2.41h-0.62v3.94h0.87Zm4.77,0V1170h-0.87v3.94h0.87Zm1.94,0v-0.76h-2.15v0.76h2.15Zm-0.19-1.65v-0.73h-1.96v0.73h1.96Zm0.16-1.54V1170h-2.12v0.75h2.12Zm4.09,3.19-1.79-2.25v0.36l1.73-2.05h-1.08l-1.54,1.88,1.59,2.06h1.09Zm-2.59,0V1170h-0.87v3.94h0.87Zm3.82,0V1170h-0.87v3.94h0.87Zm4.81,0a2.135,2.135,0,0,0,1.02-.22,1.536,1.536,0,0,0,.88-1.42,1.445,1.445,0,0,0-.39-1.02,1.986,1.986,0,0,0-1.09-.55l-0.03.42a1.786,1.786,0,0,0,.98-0.49,1.257,1.257,0,0,0,.34-0.88,1.439,1.439,0,0,0-.2-0.74,1.489,1.489,0,0,0-.58-0.53,1.828,1.828,0,0,0-.91-0.2h-1.46v0.97h1.22a0.751,0.751,0,0,1,.5.16,0.579,0.579,0,0,1,.19.46,0.609,0.609,0,0,1-.19.48,0.8,0.8,0,0,1-.5.15h-1.22v0.95h1.32a0.816,0.816,0,0,1,.42.1,0.651,0.651,0,0,1,.26.26,0.7,0.7,0,0,1,.1.38,0.724,0.724,0,0,1-.21.53,0.77,0.77,0,0,1-.57.21h-1.32v0.98h1.44Zm-1.16,0v-5.63h-1.23v5.63h1.23Zm4.57,0V1170h-0.87v3.94h0.87Zm1.94,0v-0.76h-2.15v0.76h2.15Zm-0.19-1.65v-0.73h-1.96v0.73h1.96Zm0.16-1.54V1170h-2.12v0.75h2.12Zm1.24,3.19,1.19-3.27h-0.31l1.18,3.27h0.92l-1.54-3.94h-0.79l-1.55,3.94h0.9Zm2.12-.72v-0.71h-2.14v0.71h2.14Zm3.66,0.57a1.486,1.486,0,0,0,.57-0.57,1.727,1.727,0,0,0,.2-0.83V1170h-0.87v2.44a0.887,0.887,0,0,1-.1.41,0.676,0.676,0,0,1-.27.26,0.79,0.79,0,0,1-.38.09,0.86,0.86,0,0,1-.39-0.09,0.589,0.589,0,0,1-.27-0.27,0.744,0.744,0,0,1-.1-0.4V1170h-0.88v2.39a1.625,1.625,0,0,0,.21.83,1.486,1.486,0,0,0,.57.57A1.845,1.845,0,0,0,2263.79,1173.79Zm3.28,0.15v-3.89h-0.87v3.89h0.87Zm1.22-3.18V1170h-3.32v0.76h3.32Zm2.14,1.71,1.52-2.47h-0.98l-1.17,1.99h0.65l-1.16-1.99h-1.01l1.51,2.47h0.64Zm0.13,1.47v-1.87h-0.87v1.87h0.87Zm4.76,0v-5.63h-1.25v5.63h1.25Zm2.48,0v-1.1h-2.77v1.1h2.77Zm1.17,0,1.19-3.27h-0.31l1.18,3.27h0.92l-1.54-3.94h-0.79l-1.55,3.94h0.9Zm2.12-.72v-0.71h-2.14v0.71h2.14Zm2.95,0.72a1.58,1.58,0,0,0,.71-0.15,1.059,1.059,0,0,0,.45-0.41,1.09,1.09,0,0,0,.16-0.59,1,1,0,0,0-.27-0.71,1.414,1.414,0,0,0-.76-0.39l-0.02.3a1.26,1.26,0,0,0,.69-0.35,0.871,0.871,0,0,0,.23-0.61,1.038,1.038,0,0,0-.14-0.52,0.956,0.956,0,0,0-.4-0.37,1.288,1.288,0,0,0-.64-0.14h-1.02v0.68h0.85a0.507,0.507,0,0,1,.35.11,0.382,0.382,0,0,1,.13.32,0.424,0.424,0,0,1-.13.34,0.558,0.558,0,0,1-.35.1h-0.85v0.67h0.92a0.52,0.52,0,0,1,.29.07,0.414,0.414,0,0,1,.19.18,0.6,0.6,0,0,1,.07.27,0.514,0.514,0,0,1-.15.37,0.52,0.52,0,0,1-.4.15h-0.92v0.68h1.01Zm-0.82,0V1170h-0.86v3.94h0.86Zm5.38-.09a2.1,2.1,0,0,0,.65-0.43,2.075,2.075,0,0,0,.44-0.65,2.235,2.235,0,0,0,0-1.61,2.075,2.075,0,0,0-.44-0.65,2.23,2.23,0,0,0-.65-0.43,2.176,2.176,0,0,0-.82-0.15,2.012,2.012,0,0,0-1.47.58,2.047,2.047,0,0,0-.43.65,1.906,1.906,0,0,0-.16.8,1.939,1.939,0,0,0,.16.8,1.826,1.826,0,0,0,.44.65,2.119,2.119,0,0,0,.66.44A2.262,2.262,0,0,0,2288.6,1173.85Zm-1.29-.73a0.991,0.991,0,0,1-.37-0.26,1.112,1.112,0,0,1-.24-0.39,1.366,1.366,0,0,1-.08-0.51,1.481,1.481,0,0,1,.14-0.65,1.062,1.062,0,0,1,.41-0.43,1.226,1.226,0,0,1,.61-0.15,1.419,1.419,0,0,1,.48.08,1.183,1.183,0,0,1,.37.26,1.28,1.28,0,0,1,.24.39,1.588,1.588,0,0,1,.08.5,1.356,1.356,0,0,1-.15.65,1.007,1.007,0,0,1-.4.44,1.241,1.241,0,0,1-.62.16A1.193,1.193,0,0,1,2287.31,1173.12Z" transform="translate(-2219 -1135)"/>
    <path id="KBL" class="cls-2" d="M2240.28,1163.97l-18.89-15.56v0.9l18.47-14.32h-2.09l-17.87,13.89,18.25,15.09h2.13Zm-19.91,0v-28.98h-1.36v28.98h1.36Zm35.9,0a11.474,11.474,0,0,0,4.95-.99,7.55,7.55,0,0,0,3.24-2.78,7.687,7.687,0,0,0,1.15-4.2,7.47,7.47,0,0,0-1.64-4.85,8.089,8.089,0,0,0-4.54-2.7l-0.22.52a6.793,6.793,0,0,0,3.71-2.51,7.291,7.291,0,0,0,1.28-4.35,6.993,6.993,0,0,0-1-3.82,6.634,6.634,0,0,0-2.81-2.44,9.98,9.98,0,0,0-4.29-.86h-9.64v1.25h9.64a7.25,7.25,0,0,1,4.9,1.58,5.473,5.473,0,0,1,1.84,4.38,5.878,5.878,0,0,1-1.62,4.35,6.029,6.029,0,0,1-4.44,1.6h-10.32v1.16H2257a7.919,7.919,0,0,1,3.75.86,6.367,6.367,0,0,1,3.45,5.83,6.131,6.131,0,0,1-2.11,4.88,8.232,8.232,0,0,1-5.61,1.85h-10.02v1.24h9.81Zm-9.12,0v-28.98h-1.37v28.98h1.37Zm26.73,0v-28.98h-1.36v28.98h1.36Zm16.12,0v-1.24h-16.72v1.24H2290Z" transform="translate(-2219 -1135)"/>
  </g>
</svg>
